PathFileType	4	(X/Y/Z)	 s06c0402.trc
DataRate	CameraRate	NumFrames	NumMarkers	Units	OrigDataRate	OrigDataStartFrame	OrigNumFrames
200	200	4	48	mm	200	1751	2000
Frame#	Time	racr			lacr			c7			jug			rlel			rdr			llel			ldr			s2			lic			ric			lasi			rasi			rpsi			lpsi			rgt			lgt			rth1			rth2			rth3			rth4			rlfc			rmfc			rsh1			rsh2			rsh3			rsh4			rlmal			rcal			rtoe			rmt5			lth1			lth2			lth4			lth3			llfc			lmfc			llmal			lcal			lmt5			lsh1			lsh2			lsh3			lsh4			ltoe			SBIKE			LBIKE			RBIKE			
		X1	Y1	Z1	X2	Y2	Z2	X3	Y3	Z3	X4	Y4	Z4	X5	Y5	Z5	X6	Y6	Z6	X7	Y7	Z7	X8	Y8	Z8	X9	Y9	Z9	X10	Y10	Z10	X11	Y11	Z11	X12	Y12	Z12	X13	Y13	Z13	X14	Y14	Z14	X15	Y15	Z15	X16	Y16	Z16	X17	Y17	Z17	X18	Y18	Z18	X19	Y19	Z19	X20	Y20	Z20	X21	Y21	Z21	X22	Y22	Z22	X23	Y23	Z23	X24	Y24	Z24	X25	Y25	Z25	X26	Y26	Z26	X27	Y27	Z27	X28	Y28	Z28	X29	Y29	Z29	X30	Y30	Z30	X31	Y31	Z31	X32	Y32	Z32	X33	Y33	Z33	X34	Y34	Z34	X35	Y35	Z35	X36	Y36	Z36	X37	Y37	Z37	X38	Y38	Z38	X39	Y39	Z39	X40	Y40	Z40	X41	Y41	Z41	X42	Y42	Z42	X43	Y43	Z43	X44	Y44	Z44	X45	Y45	Z45	X46	Y46	Z46	X47	Y47	Z47	X48	Y48	Z48	
1751	8.7550	561.200778	1326.496453	-58.331004	576.168921	1312.705973	-379.533332	570.405604	1404.697209	-216.850514	548.892021	1246.316262	-211.889574	513.611789	1090.455946	70.483611	683.250715	945.978064	-28.133192	506.856237	1072.525216	-494.042267	656.788979	922.530631	-393.540932	18.461101	1186.994651	-207.384316	183.611351	1150.221442	-377.637799	178.458355	1134.730122	-44.535758	191.979319	1096.248359	-340.553246	200.934763	1086.789196	-85.152558	58.500915	1220.357283	-174.614846	56.279565	1222.927752	-234.833183	130.748370	1052.248391	-18.982329	147.476837	1099.454376	-408.592323	208.050072	943.260027	-9.768674	270.803570	878.198181	-16.224253	292.228074	793.834629	-24.300130	300.944104	897.850752	-30.984592	312.220594	694.172038	-45.444595	297.345619	675.614558	-156.011418	232.799267	600.868591	-21.001606	186.544989	529.860988	-41.248941	111.236091	484.358660	-42.321258	202.333855	517.816933	-76.990779	42.614798	438.915684	-48.093307	-19.986176	461.059439	-94.312399	149.451140	242.710141	-97.267754	70.787513	301.742726	-27.237322	205.776066	998.097100	-426.146681	282.987126	957.397417	-425.642146	307.688852	983.015369	-413.100176	330.092676	881.258145	-424.373198	382.362874	776.290476	-400.771790	394.209374	759.755513	-287.889520	274.729570	422.617840	-376.953526	202.629991	394.402817	-327.958498	394.221304	351.506431	-404.382330	354.413088	670.596623	-418.440016	351.065560	586.420040	-396.601601	305.707624	510.183060	-389.759130	377.618498	584.060227	-367.443755	481.555992	356.652691	-347.715761	-155.991626	857.539736	-213.282035	-49.465879	83.980502	-414.472583	-48.962549	79.979957	-17.048943	
1752	8.7600	559.667969	1326.825247	-58.081945	574.583099	1313.325869	-379.284565	568.872123	1405.125601	-216.537581	549.285236	1246.780476	-211.603144	513.204216	1090.402293	70.066238	683.243779	945.931975	-28.254758	506.776791	1072.733398	-493.715398	656.817043	922.514820	-393.458687	17.465087	1186.292634	-208.166926	183.150156	1150.120014	-378.043231	177.120485	1134.425997	-44.778015	191.714112	1096.298557	-341.137459	199.737145	1086.658935	-85.274479	57.006550	1219.827459	-175.230217	55.225747	1222.422444	-235.597223	129.481442	1051.923802	-19.416016	147.276966	1099.141677	-409.099786	206.906225	942.756223	-9.881629	269.639307	877.625195	-15.923312	290.628640	793.240543	-24.050666	299.794434	897.302884	-30.709445	311.291337	693.426694	-44.882120	296.503628	674.553189	-155.290122	231.964844	599.827429	-20.688809	185.915179	528.564109	-41.034428	110.815593	482.919928	-42.189996	201.774755	516.779337	-76.805117	42.292084	437.320229	-47.945514	-20.287293	459.343693	-94.213142	149.637751	241.448083	-97.307698	70.880061	300.225867	-27.201967	205.622804	998.110415	-426.341605	283.082557	957.970373	-425.841392	307.671371	983.676341	-413.479577	330.741534	882.037066	-424.549919	383.912661	777.764564	-400.977297	395.100576	761.770799	-287.716018	275.046930	424.434260	-376.900170	202.934616	396.334845	-327.690607	394.331033	352.951843	-404.306640	355.738160	672.085600	-418.337473	352.085438	588.031110	-396.620239	306.441387	511.873509	-389.708906	378.472631	585.543756	-367.193398	481.664147	357.860365	-347.681616	-155.989300	857.541348	-213.273808	-49.458978	83.977643	-414.472174	-49.172226	80.085410	-17.060459	
1753	8.7650	558.104196	1327.207251	-57.914396	573.296274	1314.079867	-379.075559	567.347028	1405.620216	-216.189842	546.206648	1247.232643	-211.551151	512.780123	1090.344007	69.561783	683.253823	945.884293	-28.349013	506.765597	1073.025596	-493.278717	656.842324	922.527256	-393.387565	16.442804	1185.557616	-209.120414	182.675733	1149.964379	-378.484573	175.691409	1134.194710	-45.005105	191.465018	1096.329923	-341.528449	198.575229	1086.411130	-85.486283	56.087453	1219.181352	-176.061926	54.279891	1221.803607	-236.266174	128.268843	1051.634307	-19.766007	147.033482	1098.907526	-409.585845	205.677755	942.344126	-10.180206	268.832487	876.967651	-16.052018	289.362872	792.709669	-23.693826	298.655787	896.682380	-30.473293	310.231218	692.706132	-44.457088	295.406439	673.644865	-154.892734	231.111950	598.523051	-20.301428	185.132776	527.340827	-40.872579	110.163370	481.479764	-42.123123	201.008755	515.636286	-76.670727	41.784220	435.866093	-47.892670	-20.872005	457.699662	-94.149143	149.872116	240.397224	-97.300485	70.896419	298.902729	-27.232560	205.429976	998.206420	-426.508076	283.132458	958.656403	-426.032061	307.585902	984.593256	-413.789391	331.323455	883.072562	-424.724547	385.429118	779.154622	-401.054868	396.085475	763.676884	-287.655651	275.497006	426.305528	-376.879388	203.382492	398.431640	-327.493155	394.450793	354.455820	-404.294885	357.048629	673.708498	-418.342425	353.133157	589.596676	-396.516469	307.241985	513.583071	-389.692320	379.361045	587.086969	-367.038697	481.785500	358.857649	-347.617131	-156.013099	857.541457	-213.252784	-49.450431	83.967064	-414.465782	-49.207105	80.035451	-17.039709	
1754	8.7700	556.545628	1327.612849	-57.693250	571.720610	1314.884248	-378.875390	565.821900	1406.081973	-215.983744	546.633732	1247.738686	-211.291333	512.354863	1090.299628	69.044974	683.234253	945.807459	-28.407555	506.787560	1073.339174	-492.874360	656.893320	922.525453	-393.344069	15.506581	1184.991743	-209.792746	182.284010	1149.865928	-378.964026	174.432038	1134.016192	-45.261598	191.147489	1096.394733	-341.968751	197.406633	1086.315930	-85.654810	54.940919	1218.662504	-176.604840	53.160933	1221.222162	-236.889749	127.039216	1051.306865	-20.003195	146.697112	1098.755903	-410.025293	204.607459	942.178487	-9.410950	267.892317	876.462267	-15.990035	288.466585	792.209503	-23.336011	297.595310	896.220651	-30.357563	308.700698	691.822237	-44.101554	294.240104	672.546382	-154.338706	229.986684	597.433109	-20.056114	184.171118	526.185678	-40.799099	109.232633	480.124503	-42.111105	200.044899	514.545559	-76.602860	41.164988	434.420173	-47.840774	-21.660317	456.004395	-94.153687	150.198931	239.506915	-97.306447	70.876207	297.551880	-27.204235	205.207345	998.431851	-426.584456	283.197725	959.413026	-426.156473	307.454357	985.580210	-414.070666	331.944085	884.257222	-424.884996	386.948878	780.743808	-401.112816	397.318107	765.665555	-287.656980	276.053456	428.352067	-377.002577	203.771983	400.789379	-327.441877	394.639231	355.835939	-404.274938	358.356422	675.467149	-418.351603	354.183495	591.353759	-396.438563	308.181129	515.387981	-389.692903	380.376324	588.831491	-366.913033	481.973146	359.843662	-347.560222	-155.919484	857.550966	-213.239677	-49.451309	83.979835	-414.484511	-49.204172	80.054479	-17.040487	
